HIERARCHY
ROOT Hip
{
    OFFSET 0.0 0.0 0.0
    CHANNELS 6 Xposition Yposition Zposition Zrotation Xrotation Yrotation
    JOINT RightHip
    {
        OFFSET -13.521650314331055 0.0 0.0
        CHANNELS 3 Zrotation Xrotation Yrotation
        JOINT RightKnee
        {
            OFFSET 0.0 0.0 -48.099876403808594
            CHANNELS 3 Zrotation Xrotation Yrotation
            JOINT RightAnkle
            {
                OFFSET 0.0 0.0 -45.817779541015625
                CHANNELS 3 Zrotation Xrotation Yrotation
                End Site
                {
                    OFFSET 0.0 -18.327112197875977 0.0
                }
            }
        }
    }
    JOINT LeftHip
    {
        OFFSET 13.521650314331055 0.0 0.0
        CHANNELS 3 Zrotation Xrotation Yrotation
        JOINT LeftKnee
        {
            OFFSET 0.0 0.0 -48.099876403808594
            CHANNELS 3 Zrotation Xrotation Yrotation
            JOINT LeftAnkle
            {
                OFFSET 0.0 0.0 -45.817779541015625
                CHANNELS 3 Zrotation Xrotation Yrotation
                End Site
                {
                    OFFSET 0.0 -18.327112197875977 0.0
                }
            }
        }
    }
    JOINT Spine
    {
        OFFSET 0.0 0.0 24.278772354125977
        CHANNELS 3 Zrotation Xrotation Yrotation
        JOINT Thorax
        {
            OFFSET 0.0 0.0 24.261747360229492
            CHANNELS 3 Zrotation Xrotation Yrotation
            JOINT Neck
            {
                OFFSET 0.0 0.0 11.935837745666504
                CHANNELS 3 Zrotation Xrotation Yrotation
                End Site
                {
                    OFFSET 0.0 0.0 4.7743353843688965
                }
            }
            JOINT LeftShoulder
            {
                OFFSET 15.132634162902832 0.0 0.0
                CHANNELS 3 Zrotation Xrotation Yrotation
                JOINT LeftElbow
                {
                    OFFSET 27.791358947753906 0.0 0.0
                    CHANNELS 3 Zrotation Xrotation Yrotation
                    JOINT LeftWrist
                    {
                        OFFSET 23.395803451538086 0.0 0.0
                        CHANNELS 3 Zrotation Xrotation Yrotation
                        End Site
                        {
                            OFFSET 9.358321189880371 0.0 0.0
                        }
                    }
                }
            }
            JOINT RightShoulder
            {
                OFFSET -15.132634162902832 0.0 0.0
                CHANNELS 3 Zrotation Xrotation Yrotation
                JOINT RightElbow
                {
                    OFFSET -27.791358947753906 0.0 0.0
                    CHANNELS 3 Zrotation Xrotation Yrotation
                    JOINT RightWrist
                    {
                        OFFSET -23.395803451538086 0.0 0.0
                        CHANNELS 3 Zrotation Xrotation Yrotation
                        End Site
                        {
                            OFFSET -9.358321189880371 0.0 0.0
                        }
                    }
                }
            }
        }
    }
}
MOTION
Frames: 9
Frame Time: 0.03333333333333333
0.0 95.60912 1.0046997 -65.42969406335867 -43.37711222135061 -96.22390132442528 8.373537432424383 -41.13180921117146 14.017747574476429 0.5299724185978264 20.488218865581427 10.86824694957084 3.1805546814635168e-15 -8.827812596100317e-32 -3.1805546814635168e-15 3.315569053796559 -19.11138631665282 6.8992683825251655 -1.5489036991644516 26.068889476958372 29.869762250468032 -9.931289170612858e-32 -7.156248033292914e-15 -1.5902773407317584e-15 -2.9305695631003608 17.024420465674606 -2.4592451161905253 -6.699622016302084 2.3613882562954212e-07 1.6372860455026711e-06 -6.701007368451661 -4.231141546741742 7.696050910088117 -27.72900939390779 -5.291211582841871 62.21733633451459 -37.9089460833156 8.673026893625489e-07 -1.4022479706047814e-06 -6.3611093629270335e-15 0.0 0.0 -17.551613863974342 -44.826231498214874 -37.35735455110694 51.45575237263757 -2.8481802057728763e-06 4.422755520165679e-06 -1.9878466759146977e-16 -2.758691436281349e-33 1.5902773407317582e-15
0.5775757 95.53963 12.519653 -65.71322303600651 -43.93889231281705 -96.3908568085165 7.797482125561774 -39.55198234757506 14.80071225886262 0.9401653660940568 19.325265654581514 9.521462004874019 -6.3611093629270335e-15 6.3611093629270335e-15 3.1805546814635168e-15 3.1394372994333644 -18.42231313792994 6.824162534507922 -1.6276652189371492 28.049063167780716 30.257083608774092 -8.827812596100317e-32 -6.361109362927035e-15 -1.5902773407317588e-15 -2.729331596606053 16.144218706784166 -2.502690106668267 -6.6293706949952345 2.628500259465437e-06 -4.569625167960076e-06 -6.855169465089388 -3.65850976098746 8.599545334965509 -28.741515569651604 -3.067371583669828 61.591916661615684 -40.946121966205325 -3.521217455708041e-07 6.946097636307855e-07 6.361109362927035e-15 -8.827812596100317e-32 -1.5902773407317588e-15 -15.983707468205685 -44.29513780397096 -33.67935282477536 50.56934995591567 -4.8129056217265e-06 4.76076663934315e-06 -5.963540027744094e-16 -2.069018577211012e-33 3.975693351829396e-16
2.6239624 95.46491 23.653442 -66.06010572881038 -44.62642853500892 -96.87488359092566 7.71147328625853 -38.01295528905672 16.739905838818313 1.4380155477997372 18.237799204025638 6.808333756382942 -3.1805546814635168e-15 -6.3611093629270335e-15 -3.1805546814635168e-15 3.076709618298922 -17.354280204962116 7.210459765779402 -1.749607313304161 29.91293352562518 30.149852051919407 0.0 6.361109362927033e-15 0.0 -2.635353237420584 14.976426310939603 -2.269785367050452 -6.342357432866731 -1.8032639581946815e-06 -5.548374397888629e-06 -7.356654586322932 -2.4081174834071946 9.496282126310247 -29.51922807444944 -0.36288724105862935 61.08083761079492 -45.07171767584688 -7.279933871436267e-07 -7.598024816020013e-07 0.0 0.0 7.951386703658792e-16 -15.184115643415872 -43.939061526726675 -29.92220517124367 49.721458188692694 -5.695119845919033e-06 2.9309887947809764e-06 1.3914926731402886e-15 -1.9310840053969444e-32 -1.5902773407317584e-15
5.2940063 95.38818 33.90674 -66.41635408312855 -44.659797652367736 -97.32654078849362 7.809390827049445 -37.10712928224629 18.163570465100474 1.7366365635282566 17.859268762657848 4.07166297956712 3.1805546814635176e-15 6.361109362927035e-15 3.1805546814635176e-15 3.0597038944481483 -16.547862242964793 7.398962577318745 -2.079535702176666 32.44869064346471 30.355563204490533 3.1805546814635168e-15 -7.156248033292914e-15 1.9862578341225716e-31 -2.501360912744383 13.64214159255963 -2.2113789445495318 -5.921900556101974 -1.0842605117828466e-06 2.983340080128155e-07 -9.071139482486945 -0.8449643038054899 10.43491470229148 -29.60342387322295 1.471711083344809 60.944661469021206 -49.33477490239277 -6.888225249949584e-07 -9.94561571111e-07 0.0 0.0 0.0 -14.163540425978251 -43.446474969957094 -26.703865568615868 49.18482540674615 -6.028991410888734e-07 1.715800098614309e-07 -1.1927080055488186e-15 0.0 0.0
6.1707764 95.36914 44.385742 -66.90134345169628 -44.7177230449886 -97.66140189257135 7.669475189529271 -36.24955014611744 19.076307777024 2.084372689256848 18.32984848941986 0.9247018259814576 -3.1805546814635168e-15 -6.3611093629270335e-15 -3.1805546814635168e-15 2.906842714613922 -15.5733510653178 7.097034799794072 -2.4604947474809076 33.91292424166318 30.83236970969227 -1.7655625192200634e-31 -6.3611093629270335e-15 -3.1805546814635168e-15 -2.175134009142688 11.766620777822752 -2.415618239281002 -5.115684336919002 1.6088402044011812e-06 -5.204797115820797e-06 -9.329782607130866 0.7187215378130889 11.322117700959149 -29.296876467296638 3.538352661968592 61.22545968990779 -54.03679375668782 -1.7979704464542347e-06 2.534948699367533e-06 -6.3611093629270335e-15 2.2069531490250793e-31 -3.975693351829396e-15 -13.16813927099973 -42.789521899624724 -23.232886321977347 48.95158031385913 -2.6118459269072045e-06 6.484505369475112e-07 0.0 0.0 -7.951386703658792e-16
6.350586 95.32491 52.674744 -66.9486530938997 -45.014128398832895 -97.37474623411543 7.501823795381668 -35.52208355311492 19.379078406619204 2.274572261203753 18.856257360680704 -0.816114623211751 0.0 0.0 -3.1805546814635164e-15 2.825229070905329 -15.093143538818328 6.674185434120255 -2.8627106887303055 34.859257426778356 30.873129118874484 -3.1805546814635168e-15 0.0 0.0 -1.8596307131036043 10.052307335670472 -2.994225999636175 -4.149269706293839 -5.783050642706214e-07 -9.058781546350548e-09 -8.772335532684105 1.4821686354964518 12.72225981276623 -27.375922717981798 3.1948869656498826 61.21233302782115 -60.1528868329392 5.412026828969804e-07 2.7300652021111545e-06 0.0 0.0 7.951386703658792e-16 -12.102527165126391 -42.19660560689032 -19.421699539248277 47.950386457821885 1.790690809127997e-06 7.551839366299652e-07 7.951386703658791e-16 6.361109362927033e-15 -4.4139062980501586e-32
7.8031006 95.27239 61.397034 -67.34968451795385 -44.87235710903207 -97.23601717407145 7.11167527419626 -34.971476348238646 19.41837845559359 2.6679226987187836 20.335824487428972 -2.8947665012315897 3.1805546814635176e-15 -6.361109362927035e-15 1.7655625192200634e-31 2.6566616598568253 -14.68807801576205 5.86908479373021 -3.0081672913540896 33.41967158981421 30.912162622167415 0.0 0.0 0.0 -1.5731876647033318 8.808705914402063 -3.5666088764111157 -3.4505103625448976 7.418825155677707e-07 3.3040896848613547e-06 -7.9845025338803 2.370841224339769 13.259086879187583 -24.040454193493524 3.8689825270347296 59.93574049538166 -69.42045173366093 6.143156528265441e-07 -1.0023473470451747e-08 -6.3611093629270335e-15 1.7655625192200634e-31 -3.1805546814635168e-15 -9.447991521565937 -40.7571851467929 -14.877154025810245 47.42365133631113 -6.356881870068703e-08 -1.3358922629034069e-06 1.1927080055488188e-15 8.276074308844047e-33 7.951386703658792e-16
8.297913 95.23394 67.62274 -68.35589711553014 -43.93445880729685 -97.35539033559402 6.81377364293932 -34.33157114062257 19.354671274579566 3.084178298866256 22.466986229603823 -4.89940116564709 -3.1805546814635168e-15 -6.3611093629270335e-15 -1.7655625192200634e-31 2.47487995762592 -13.974872750590661 5.123603562201922 -3.107312209882948 31.422542914236793 30.41624319443275 -3.1805546814635164e-15 8.827812596100317e-32 -3.1805546814635164e-15 -1.4176750094772672 8.098114630167279 -4.143732381824928 -2.815992291193709 -2.6964216155410756e-06 8.937051832754087e-07 -7.900546652165323 2.630366707779316 12.408020168038622 -19.344458276119056 3.873733676092667 59.049318642219795 -78.57890120104683 8.641626749065112e-07 3.818134469451637e-06 -1.2722218725854067e-14 1.7655625192200634e-31 -1.5902773407317584e-15 -7.19326496344738 -39.000060123323145 -11.89135308649786 47.431087675097345 -2.0707446979476805e-06 2.4336871508743187e-06 -1.3914926731402886e-15 0.0 0.0
8.909546 95.238 71.626465 -68.33073123807489 -43.44191776227229 -96.66397115070208 6.263361797385639 -33.973837525613014 19.41914009563138 3.849290297153314 24.636589584823476 -7.108480702872101 3.1805546814635168e-15 -1.5902773407317584e-15 4.4139062980501586e-32 2.3572123514250096 -14.270645281620824 4.5583614564673605 -2.8076020296216875 29.397031786335695 28.617648792144116 3.1805546814635168e-15 -4.4139062980501586e-32 -1.5902773407317584e-15 -1.18940744521157 7.299139964070581 -5.13874595507295 -2.1951088677625106 4.3944625212255385e-07 -2.0615842172506605e-06 -6.982095129110834 1.7706758822849216 12.364132920512837 -16.34281184393178 4.021266017398934 57.73973579503612 -86.59861060886351 2.5621060048742936e-06 -3.257906587360484e-06 6.3611093629270335e-15 6.3611093629270335e-15 -3.531125038440127e-31 -6.434258401044411 -40.148986019519235 -9.520316024468185 48.062349029997065 -6.349714404200824e-06 1.718432672708068e-06 -3.975693351829396e-15 9.939233379573487e-17 7.951386703658792e-16
